<svg xmlns="http://www.w3.org/2000/svg" version="1.1" xmlns:xlink="http://www.w3.org/1999/xlink" xmlns:svgjs="http://svgjs.dev/svgjs" width="1440" height="560" preserveAspectRatio="none" viewBox="0 0 1440 560"><g mask="url(&quot;#SvgjsMask1004&quot;)" fill="none"><rect width="1440" height="560" x="0" y="0" fill="#0e2a47"></rect><path d="M560 128.95C544.31 128.95 530 127.46 530 140C530 174.99 533.08 224 560 224C600.58 224 665 166.62 665 140C665 119.1 611.81 128.95 560 128.95" stroke="rgba(51, 121, 194, 0.58)" stroke-width="2"></path><path d="M1400 56C1388.13 56 1377.09 100.5 1377.09 140C1377.09 156.2 1388.29 167.39 1400 167.39C1412.1 167.39 1424.71 156.51 1424.71 140C1424.71 100.81 1411.94 56 1400 56" stroke="rgba(51, 121, 194, 0.58)" stroke-width="2"></path><path d="M420 242.67C401.92 242.67 395.65 261.94 395.65 280C395.65 295.74 403.31 310.27 420 310.27C462.15 310.27 513.33 296.7 513.33 280C513.33 262.9 460.76 242.67 420 242.67" stroke="rgba(51, 121, 194, 0.58)" stroke-width="2"></path><path d="M980 196C969.49 196 960.31 239.28 960.31 280C960.31 299.81 969.62 317.06 980 317.06C990.72 317.06 1002.5 300.14 1002.5 280C1002.5 239.61 990.59 196 980 196" stroke="rgba(51, 121, 194, 0.58)" stroke-width="2"></path><path d="M518 560C518 546.02 539.55 513.33 560 513.33C579.64 513.33 598.18 545.71 598.18 560C598.18 569.05 579.09 560 560 560C539 560 518 569.35 518 560" stroke="rgba(51, 121, 194, 0.58)" stroke-width="2"></path><path d="M140 88.42C111.85 88.42 104.26 32.16 104.26 0C104.26 -12.05 122.13 0 140 0C189.41 0 238.82 -18.88 238.82 0C238.82 25.33 179.13 88.42 140 88.42" stroke="rgba(51, 121, 194, 0.58)" stroke-width="2"></path><path d="M420 119C354.66 97.18 311.82 35.57 311.82 0C311.82 -23.93 365.91 0 420 0C490 0 490 0 560 0C630 0 630 0 700 0C735 0 737.56 -9.46 770 0C807.56 10.95 806.95 40.83 840 40.83C865.29 40.83 858.73 8.15 886.67 0C928.73 -12.27 933.34 0 980 0C1009.26 0 1013.66 -12.12 1038.51 0C1083.66 22.01 1072.51 49.1 1120 68.25C1183.25 93.76 1196.38 65.71 1260 89.31C1293.1 101.59 1313.45 113.11 1313.45 140C1313.45 170.41 1288.08 173.18 1260 203.91C1224.12 243.18 1185.53 245.13 1185.53 280C1185.53 310.1 1221.3 333.85 1260 333.85C1305.83 333.85 1309 309.43 1354.59 280C1379 264.24 1379.54 264.12 1400 243.48C1448.91 194.12 1476.89 200.18 1493.33 140C1510.14 78.44 1451.1 46.19 1466.5 0C1474.44 -23.81 1527.35 -24.1 1540 0C1564.1 45.9 1540 70 1540 140C1540 210 1540 210 1540 280C1540 323.29 1557.15 331.69 1540 366.58C1522.74 401.69 1471.19 385.83 1471.19 420C1471.19 478.03 1507.57 485 1540 550.97C1541.98 555 1544.24 559.73 1540 560C1474.24 564.24 1470 560 1400 560C1389.23 560 1387.83 564.91 1378.46 560C1317.83 528.24 1317.05 486.67 1260 486.67C1211.85 486.67 1217.75 533.97 1168.06 560C1147.75 570.64 1144.03 560 1120 560C1050 560 1050 560 980 560C910 560 910 560 840 560C824.44 560 808.89 570.56 808.89 560C808.89 531.36 809.59 506.48 840 481.6C895.14 436.48 910 450.8 980 420C980 420 980 420 980 420C1022.5 350 1053.27 354.07 1065 280C1075.44 214.07 1052.79 205.83 1024.33 140C1010.29 107.53 1003.03 83.4 980 83.4C955.77 83.4 942.73 105.85 929.81 140C905.55 204.15 929.82 214.7 905.63 280C884.92 335.92 875.57 382.44 840 382.44C801.58 382.44 777.87 338.7 757.65 280C736.11 217.48 773.05 205.2 756.49 140C744.22 91.68 741.28 64.97 700 52.97C643.04 36.41 629.65 66.46 560 82.89C489.65 99.48 478.75 138.62 420 119" stroke="rgba(51, 121, 194, 0.58)" stroke-width="2"></path><path d="M0 187.95C28.37 187.95 51.84 230.72 96 280C121.84 308.83 115.33 314.23 140 344.17C173.02 384.23 188.4 374.94 211.37 420C243.4 482.85 270.31 520.17 250 560C234.62 590.17 195 560 140 560C113.45 560 96.65 579.13 86.9 560C60.97 509.13 95.91 478.99 68.63 420C52.46 385.02 16.34 405.39 0 372.05C-17.97 335.39 0 326.02 0 280C0 233.98 -19.63 187.95 0 187.95" stroke="rgba(51, 121, 194, 0.58)" stroke-width="2"></path><path d="M228 280C228 246.29 256.23 207.2 280 207.2C302.02 207.2 319.57 245.51 319.57 280C319.57 305.86 301.42 327.89 280 327.89C255.63 327.89 228 306.64 228 280" stroke="rgba(51, 121, 194, 0.58)" stroke-width="2"></path><path d="M400.69 420C400.69 413.1 411.26 404.86 420 404.86C426.87 404.86 431.91 412.88 431.91 420C431.91 426.05 426.6 431.2 420 431.2C410.99 431.2 400.69 426.27 400.69 420" stroke="rgba(51, 121, 194, 0.58)" stroke-width="2"></path><path d="M560 36.84C510.32 36.84 460 9.5 460 0C460 -8.92 510 0 560 0C605.16 0 650.32 -8.86 650.32 0C650.32 9.56 605.48 36.84 560 36.84" stroke="rgba(51, 121, 194, 0.58)" stroke-width="2"></path><path d="M817.89 140C819.24 123.66 828.71 113.75 840 113.75C851.65 113.75 862.67 123.27 863.77 140C868.14 206.4 861.33 211.36 850.94 280C849.44 289.9 845.93 297.07 840 297.07C833.59 297.07 827.76 290.61 826.27 280C816.71 212.07 812.37 206.78 817.89 140" stroke="rgba(51, 121, 194, 0.58)" stroke-width="2"></path><path d="M980 8.94C975.52 8.94 970 2.56 970 0C970 -1.91 975 0 980 0C983.13 0 986.27 -1.63 986.27 0C986.27 2.84 983.65 8.94 980 8.94" stroke="rgba(51, 121, 194, 0.58)" stroke-width="2"></path><path d="M1082.67 140C1082.67 120.02 1098.51 112 1120 112C1173.17 112 1232 109.71 1232 140C1232 182.66 1162.41 257.89 1120 257.89C1087.75 257.89 1082.67 192.96 1082.67 140" stroke="rgba(51, 121, 194, 0.58)" stroke-width="2"></path><path d="M0 235.89C13.59 235.89 46 257.94 46 280C46 302.06 13.59 324.11 0 324.11C-9.41 324.11 0 302.06 0 280C0 257.94 -9.41 235.89 0 235.89" stroke="rgba(51, 121, 194, 0.58)" stroke-width="2"></path><path d="M1452 280C1452 238.29 1514.99 177.33 1540 177.33C1558.99 177.33 1540 228.67 1540 280C1540 300.26 1552.98 320.53 1540 320.53C1508.98 320.53 1452 309.89 1452 280" stroke="rgba(51, 121, 194, 0.58)" stroke-width="2"></path><path d="M137.25 420C137.25 418.21 138.63 417.08 140 417.08C141.38 417.08 142.75 418.21 142.75 420C142.75 424.34 141.38 429.33 140 429.33C138.63 429.33 137.25 424.34 137.25 420" stroke="rgba(51, 121, 194, 0.58)" stroke-width="2"></path><path d="M1096.67 420C1096.67 376.07 1089.32 338.57 1120 332.5C1170.98 322.41 1187.51 375.11 1260 387.69C1327.51 399.41 1341.14 368.59 1400 381.11C1417.07 384.74 1411.86 400.74 1411.86 420C1411.86 436.09 1414.81 449.38 1400 451.82C1338.88 461.88 1325.63 429.02 1260 445C1185.63 463.11 1169.6 527.59 1120 520C1087.93 515.09 1096.67 469.82 1096.67 420" stroke="rgba(51, 121, 194, 0.58)" stroke-width="2"></path><path d="M889.68 560C889.68 542.94 932.53 497.78 980 497.78C1041.32 497.78 1107.27 543.61 1107.27 560C1107.27 574.72 1043.63 560 980 560C934.84 560 889.68 574.05 889.68 560" stroke="rgba(51, 121, 194, 0.58)" stroke-width="2"></path></g><defs><mask id="SvgjsMask1004"><rect width="1440" height="560" fill="#ffffff"></rect></mask></defs></svg>